<svg width="109" height="32" viewBox="0 0 109 32" fill="none" xmlns="http://www.w3.org/2000/svg">
<path fill-rule="evenodd" clip-rule="evenodd" d="M0.452453 15.7662C0.514985 14.3331 0.660893 12.5677 0.744269 11.82C0.848489 11.0723 1.03608 9.99232 1.18199 9.43155C1.3279 8.85001 1.5155 8.20616 1.59887 7.9777C1.70309 7.74924 2.11997 6.85617 2.51601 6.00463C2.93289 5.15309 3.62074 4.07309 4.05846 3.61617C4.49619 3.13847 5.18404 2.53616 5.58007 2.26616C5.97611 1.9754 6.5389 1.62232 6.83071 1.47693C7.12253 1.33155 7.81038 1.06155 8.39401 0.895395C8.9568 0.729241 9.85309 0.604628 10.3742 0.604628C10.8953 0.604628 11.9166 0.770779 12.667 0.999241C13.4174 1.2277 14.4388 1.7054 14.9599 2.07924C15.481 2.45309 16.2522 3.13847 16.6691 3.59539C17.1068 4.07309 17.4611 4.50924 17.4611 4.59232C17.4611 4.6754 17.5862 4.86232 17.7321 5.0077C17.878 5.15309 18.149 5.61001 18.3158 6.00463C18.5033 6.39924 18.7743 7.06386 18.9202 7.45847C19.0453 7.85309 19.2537 8.37232 19.3371 8.60078C19.4413 8.82924 19.5664 9.30693 19.6498 9.63924C19.7123 9.97155 19.8791 10.9685 19.9833 11.82C20.1083 12.6715 20.1709 15.2885 20.1083 17.6354C20.0666 19.9823 19.9207 22.08 19.7957 22.3085C19.6915 22.5369 19.4622 23.1392 19.3163 23.6585C19.1704 24.1777 18.7118 25.2992 18.3158 26.1508C17.7947 27.2723 17.1902 28.0823 16.2105 29.0585C15.4601 29.8062 14.5638 30.5331 14.2303 30.6992C13.876 30.8446 13.3757 31.0939 13.1048 31.2185C12.8338 31.3431 11.604 31.4469 10.3742 31.4469C9.01933 31.4469 7.93544 31.3431 7.5811 31.1769C7.28928 31.0523 6.78903 30.8031 6.47637 30.6577C6.14286 30.5331 5.32995 29.8477 4.6421 29.1623C3.95424 28.4769 3.24555 27.6877 3.09964 27.3969C2.93289 27.1062 2.59938 26.5039 2.34926 26.0469C2.11997 25.59 1.80731 24.8839 1.68225 24.4892C1.53634 24.0946 1.3279 23.2846 1.20284 22.7239C1.07777 22.1423 0.869333 20.9792 0.765113 20.1277C0.660893 19.2762 0.514985 18.5285 0.452453 18.4662C0.369077 18.4039 0.389921 17.1992 0.452453 15.7662ZM22.6721 1.12386C22.6721 0.853858 23.4225 0.812319 28.1958 0.812319C32.9691 0.812319 33.7195 0.853858 33.7195 1.12386C33.7195 1.29001 33.5944 1.4354 33.4693 1.4354C33.3234 1.41463 33.0733 1.68463 32.9274 1.99616C32.7398 2.41155 32.6773 3.45001 32.7606 5.79693C32.8023 7.56232 32.9274 9.72232 33.0525 10.5739C33.1775 11.4254 33.4276 12.7339 33.6152 13.4816C33.8028 14.2292 34.0113 15.06 34.0738 15.3508C34.1363 15.6415 34.2614 15.9531 34.3448 16.0777C34.4282 16.2023 34.5741 16.6177 34.6783 17.0123C34.7617 17.4069 34.845 17.8223 34.845 17.9262C34.8659 18.03 34.9493 18.1546 35.0743 18.1962C35.1994 18.2377 35.3661 17.9677 35.4495 17.5939C35.5537 17.22 35.6579 16.5346 35.7205 16.0777C35.783 15.6208 35.9081 15.06 36.0123 14.8316C36.1165 14.6031 36.2416 14.0423 36.2833 13.5854C36.3458 13.1285 36.4917 11.82 36.6376 10.6777C36.7627 9.5354 36.8252 7.52078 36.7835 6.21232C36.721 4.90386 36.5959 3.34617 36.4917 2.7854C36.3666 1.99617 36.1999 1.7054 35.8455 1.53924C35.5954 1.41463 35.387 1.20693 35.387 1.06155C35.387 0.874627 36.721 0.812319 41.3275 0.812319C46.476 0.812319 47.2681 0.853858 47.2681 1.12386C47.2681 1.29001 47.1221 1.4354 46.9554 1.4354C46.7678 1.4354 46.5594 1.7677 46.4135 2.20386C46.2884 2.64001 46.1216 3.18001 46.0174 3.40847C45.9132 3.63694 45.7881 4.05232 45.7464 4.34309C45.6839 4.63386 45.4755 5.42309 45.2879 6.10847C45.1003 6.79386 44.8502 8.06078 44.7251 8.91232C44.6 9.76386 44.4958 12.7962 44.4958 15.6623C44.4958 18.5077 44.6 21.4985 44.7251 22.3085C44.8293 23.0977 45.0377 24.1777 45.1628 24.6969C45.2879 25.2162 45.4963 26.0054 45.6214 26.4623C45.7464 26.9192 45.934 27.48 46.0174 27.7085C46.1216 27.9369 46.3509 28.5808 46.5594 29.1623C46.7678 29.7231 47.1013 30.45 47.3097 30.7616C47.5182 31.0939 47.6849 31.3846 47.6849 31.4469C47.6849 31.5092 45.0169 31.5508 41.7444 31.5508C36.5959 31.5508 35.8039 31.5092 35.8039 31.2392C35.8039 31.0731 35.9498 30.9277 36.1165 30.9277C36.2833 30.9277 36.5334 30.6785 36.6585 30.3462C36.7835 30.0346 36.9711 29.5985 37.0753 29.37C37.1587 29.1416 37.388 28.4354 37.5756 27.8123C37.7424 27.1892 37.8883 26.4 37.8883 26.0469C37.8883 25.6939 37.9716 25.3408 38.0759 25.2162C38.1801 25.0916 38.326 24.4062 38.4094 23.6585C38.4927 22.9108 38.5553 19.2762 38.5553 15.5585C38.5553 11.8408 38.4927 8.33078 38.4302 7.77001C38.3468 7.18847 38.2218 6.58617 38.1592 6.42001C38.0967 6.25386 37.9091 6.66924 37.7632 7.35463C37.6173 8.04001 37.4922 9.03693 37.4714 9.57693C37.4714 10.1377 37.388 10.6154 37.2629 10.6777C37.1379 10.74 37.0545 11.2177 37.0545 11.7577C37.0545 12.3185 36.9711 12.8377 36.8669 12.9623C36.7627 13.0869 36.6376 13.5854 36.5751 14.1046C36.5126 14.6239 36.3666 15.9323 36.2207 17.0123C36.0748 18.0923 35.8872 19.1516 35.783 19.3385C35.6788 19.5462 35.5954 20.0862 35.5954 20.5431C35.5954 21 35.512 21.54 35.4078 21.7477C35.3036 21.9346 35.0743 23.0769 34.8867 24.2816C34.6991 25.4862 34.5532 26.6908 34.5532 26.9816C34.5532 27.2723 34.4698 27.5839 34.3656 27.7085C34.2614 27.8331 34.1155 28.3316 34.053 28.8508C33.9696 29.37 33.8654 30.18 33.8237 30.6785C33.7403 31.4262 33.6569 31.5508 33.2817 31.5092C33.0316 31.4677 32.7606 31.3016 32.6564 31.1354C32.573 30.9692 32.3438 30.0762 32.1562 29.1623C31.9477 28.2485 31.7184 27.3139 31.6142 27.0854C31.5308 26.8569 31.4058 26.4 31.3432 26.0469C31.2807 25.6939 31.1765 25.1539 31.114 24.8008C31.0306 24.4477 30.9264 24.0323 30.843 23.8662C30.7805 23.7 30.5929 22.9523 30.447 22.2046C30.2802 21.4569 30.1135 20.5016 30.0718 20.0654C30.0092 19.65 29.8842 19.2554 29.7591 19.1931C29.634 19.1308 29.5507 18.7985 29.5507 18.4662C29.5507 18.1339 29.4673 17.6769 29.3422 17.49C29.238 17.2823 29.0504 16.5969 28.9462 15.9739C28.842 15.3508 28.6752 14.5408 28.6127 14.2085C28.5293 13.8762 28.4042 13.3985 28.3 13.17C28.1958 12.9415 28.0707 12.4639 28.0082 12.1315C27.9665 11.7992 27.7789 10.9062 27.5913 10.1585C27.4246 9.41078 27.2161 8.5177 27.1536 8.1854C27.0702 7.85309 26.966 7.41693 26.9243 7.25078C26.8201 6.98078 26.7993 6.98078 26.6325 7.25078C26.5283 7.41693 26.4241 9.70155 26.4241 12.3185C26.4241 14.9354 26.3615 17.0123 26.2782 16.9292C26.1739 16.8254 26.028 15.9116 25.9447 14.8523C25.8404 13.8139 25.6737 12.1108 25.5695 11.0931C25.4652 10.0754 25.3193 8.76693 25.2568 8.1854C25.1943 7.62463 25.0692 7.06386 24.965 6.93924C24.8816 6.81463 24.7565 6.31616 24.6732 5.79693C24.5898 5.2777 24.423 4.53001 24.298 4.1354C24.1729 3.74078 24.0062 3.22155 23.9228 2.99309C23.8394 2.76463 23.631 2.32847 23.4851 1.99616C23.3183 1.68463 23.0682 1.4354 22.9431 1.4354C22.7972 1.4354 22.6721 1.29001 22.6721 1.12386ZM22.6721 31.3431C22.6721 31.2185 22.9014 30.9485 23.1932 30.72C23.4851 30.4916 23.7143 30.1385 23.7143 29.9516C23.7143 29.7439 23.7769 29.4946 23.8811 29.37C23.9853 29.2454 24.1729 28.7885 24.3188 28.3316C24.4439 27.8746 24.6523 27.0439 24.7774 26.4623C24.9025 25.9016 25.09 24.8631 25.1943 24.1777C25.2985 23.4923 25.4652 22.1839 25.5695 21.27C25.6737 20.3562 25.8821 19.1931 26.3198 17.7392L26.3824 18.8816C26.4032 19.5046 26.5283 20.2108 26.6325 20.4392C26.7367 20.6677 26.8618 21.3739 26.9243 21.9969C26.966 22.62 27.1119 23.7416 27.237 24.4892C27.362 25.2369 27.6539 26.4416 27.8831 27.1892C28.1333 27.9369 28.4042 28.7262 28.4876 28.9546C28.5918 29.1831 28.7794 29.64 28.9045 29.9931C29.0296 30.3462 29.3631 30.7408 29.6549 30.8862C29.9467 31.0108 30.176 31.2185 30.176 31.3431C30.176 31.4677 28.7794 31.5508 26.4241 31.5508C24.0687 31.5508 22.6721 31.4677 22.6721 31.3431ZM49.5609 31.4054C49.5401 31.3016 49.7068 31.0939 49.9152 30.9069C50.1237 30.72 50.4572 30.0139 50.6656 29.3492C50.8741 28.6639 51.1242 27.9369 51.2284 27.7085C51.3326 27.48 51.4577 27.0231 51.5411 26.67C51.6036 26.3169 51.7495 25.6731 51.8746 25.2162C51.9996 24.7592 52.2706 23.2639 52.4791 21.8931C52.7709 20.1277 52.8751 18.2792 52.8959 15.6208C52.8959 13.2116 52.7709 11.0308 52.5833 9.70155C52.3957 8.51771 52.1664 7.39617 52.0622 7.20924C51.9371 7.00155 51.8537 6.64847 51.8537 6.42001C51.8537 6.19155 51.7704 5.83847 51.6661 5.65155C51.5619 5.44386 51.2076 4.44694 50.8949 3.42924C50.478 2.18309 50.1654 1.53924 49.9152 1.45617C49.7068 1.39386 49.5817 1.24847 49.6234 1.12386C49.6651 0.999242 51.9579 0.895397 55.7724 0.874628C61.0668 0.81232 61.8588 0.853858 61.8588 1.12386C61.8588 1.29001 61.6921 1.47694 61.5045 1.49771C61.2544 1.56001 60.9834 2.01694 60.7124 2.80617C60.504 3.47078 60.2539 4.17693 60.1705 4.34309C60.0871 4.50924 59.8995 5.07001 59.7744 5.58924C59.6285 6.10847 59.4826 6.81463 59.4201 7.14693C59.3784 7.47924 59.2534 7.95693 59.1491 8.1854C59.0449 8.41386 58.899 9.07847 58.8156 9.63924C58.7531 10.2208 58.6697 12.8792 58.6697 15.5585C58.6697 18.2377 58.7531 21.0831 58.8573 21.8723C58.9615 22.6408 59.1074 23.3262 59.2117 23.3677C59.295 23.4092 59.3576 23.7 59.3576 24.0323C59.3576 24.3439 59.5243 25.2992 59.7536 26.1508C59.9829 27.0023 60.3164 28.1862 60.504 28.7469C60.7124 29.3285 60.9626 29.9723 61.0876 30.2008C61.2127 30.4292 61.4211 30.7408 61.5879 30.8862C61.7338 31.0316 61.8588 31.26 61.8588 31.3639C61.8588 31.4677 59.3576 31.5508 55.7099 31.5508C52.3331 31.5508 49.5609 31.4885 49.5609 31.4054ZM63.9432 31.2392C63.9432 31.0731 64.0266 30.9277 64.1517 30.9277C64.2768 30.9277 64.506 30.6162 64.6728 30.2631C64.8604 29.8892 64.9855 29.4323 64.9855 29.2662C64.9855 29.1 65.048 28.8716 65.1313 28.7885C65.2147 28.6846 65.4232 28.02 65.5691 27.3346C65.715 26.6285 65.9443 25.4862 66.0485 24.8008C66.1736 24.1154 66.3611 22.5785 66.4862 21.3739C66.6321 20.1692 66.7363 17.4692 66.7363 15.3508C66.7363 13.2323 66.6738 10.9062 66.5904 10.1585C66.5071 9.41078 66.3403 8.28924 66.2152 7.66617C66.0902 7.04309 65.84 5.88001 65.6525 5.07001C65.4857 4.26001 65.2564 3.53309 65.1522 3.40847C65.0688 3.30463 64.9855 3.01386 64.9855 2.74386C64.9855 2.47386 64.9021 2.26616 64.777 2.26616C64.6519 2.26616 64.5686 2.07924 64.5686 1.85078C64.5686 1.62232 64.4227 1.4354 64.2559 1.4354C64.0892 1.4354 63.9432 1.29001 63.9432 1.12386C63.9432 0.853858 64.8812 0.812319 71.197 0.812319C75.5325 0.812319 78.7633 0.895398 79.2636 1.04078C79.7221 1.14463 80.3266 1.35232 80.6184 1.47693C80.9103 1.62232 81.5773 2.14155 82.14 2.66078C82.682 3.20078 83.1197 3.67847 83.1197 3.78232C83.1197 3.8654 83.2448 4.23924 83.4115 4.61309C83.5783 4.96617 83.7659 5.56847 83.8493 5.90078C83.9326 6.23309 84.0368 7.23001 84.0994 8.08155C84.1619 8.97463 84.0994 9.99232 83.9535 10.47C83.8076 10.9269 83.5574 11.6746 83.3698 12.1315C83.2031 12.5885 82.6612 13.3777 82.2026 13.8762C81.6606 14.4369 80.7852 15.0392 79.8472 15.4754C79.0134 15.87 78.3673 16.2646 78.4298 16.3892C78.4923 16.5139 78.6591 16.5969 78.805 16.5969C78.9301 16.5969 79.472 16.7631 79.9931 16.9916C80.5142 17.22 81.3063 17.8016 81.7857 18.3C82.2443 18.7985 82.7862 19.5254 82.953 19.92C83.1197 20.3146 83.3698 21.1662 83.4949 21.7892C83.62 22.4123 83.8284 24.2816 83.9535 25.9431C84.0785 27.6046 84.2244 29.0169 84.287 29.1208C84.3287 29.2039 84.5788 29.2662 84.8498 29.2662C85.0999 29.2662 85.5376 29.0585 86.3088 28.3316L86.1629 29.0585C86.0796 29.4531 85.8503 30.0139 85.6418 30.3046C85.4334 30.5954 84.8706 30.99 84.412 31.1977C83.8284 31.4262 82.9947 31.5508 81.8691 31.5508C80.8477 31.5508 79.9306 31.4262 79.5346 31.2392C79.1594 31.0731 78.5966 30.6577 78.2839 30.3046C77.9504 29.9516 77.5544 29.1416 77.3459 28.3939C77.0333 27.1685 77.0333 26.94 77.3668 24.6969C77.6169 23.0354 77.7003 21.8723 77.5961 20.8546C77.5127 20.0446 77.2834 19.0269 77.0958 18.5908C76.9082 18.1339 76.5122 17.5523 76.1995 17.2823C75.6784 16.8669 75.4074 16.8046 72.0724 16.8046L72.1558 19.0477C72.1975 20.2731 72.3434 21.8723 72.4476 22.62C72.5727 23.3677 72.7603 24.4477 72.8853 25.0085C73.0104 25.59 73.2188 26.4208 73.3439 26.8777C73.4898 27.3346 73.7399 28.0823 73.9275 28.5392C74.1151 28.9962 74.4486 29.7439 74.6779 30.2008C74.9072 30.6577 75.2198 31.0316 75.3866 31.0316C75.5533 31.0316 75.7201 31.1562 75.7618 31.3016C75.8035 31.4885 74.532 31.5508 69.8838 31.5508C64.7353 31.5508 63.9432 31.5092 63.9432 31.2392ZM87.7054 1.12386C87.7054 0.853858 88.5183 0.812319 93.7502 0.812319C98.982 0.812319 99.7949 0.853858 99.7949 1.12386C99.7949 1.29001 99.6073 1.47693 99.378 1.53924C99.1487 1.60155 98.8986 1.80924 98.8361 2.01694C98.7736 2.20386 98.6276 2.55694 98.5443 2.7854C98.4401 3.01386 98.2525 3.61617 98.1065 4.1354C97.9815 4.65463 97.7939 5.77617 97.6688 6.6277C97.5646 7.47924 97.377 9.2654 97.2519 10.5739C97.1269 11.8823 97.0227 15.4754 97.0018 18.57C96.981 21.6439 97.0643 24.9669 97.1477 25.9431C97.2519 26.9192 97.3978 27.8954 97.4812 28.1239C97.5854 28.3523 97.8147 28.8923 98.0023 29.3285C98.2108 29.8062 98.586 30.2216 99.0237 30.4085C99.378 30.5954 100.191 30.72 100.795 30.72C101.671 30.72 101.984 30.6162 102.4 30.2008C102.692 29.91 102.922 29.5362 102.922 29.37C102.922 29.2039 103.026 29.0585 103.13 29.0585C103.234 29.0585 103.338 28.8716 103.338 28.6431C103.338 28.4146 103.443 28.2277 103.547 28.2277C103.651 28.2277 103.755 28.4146 103.755 28.6431C103.755 28.8716 103.651 29.0585 103.547 29.0585C103.443 29.0585 103.338 29.2039 103.338 29.37C103.338 29.5362 103.047 29.9516 102.713 30.3046C102.38 30.6577 102.046 30.9277 101.984 30.9277C101.921 30.9277 101.525 31.0939 101.087 31.2808C100.462 31.5508 99.8991 31.5923 98.1274 31.5092C96.3973 31.4262 95.772 31.3016 95.105 30.9277C94.6464 30.6785 94.042 30.3046 93.7502 30.0969C93.4583 29.91 92.9581 29.37 92.6037 28.9339C92.2702 28.4769 91.8534 27.75 91.6658 27.2931C91.4156 26.6285 91.3322 24.9254 91.2072 18.6739C91.1447 14.3954 90.9779 10.1792 90.8737 9.3277C90.7695 8.47616 90.5193 7.25078 90.3526 6.6277C90.1858 6.00463 89.8523 4.92463 89.623 4.23924C89.3938 3.55386 89.0603 2.64001 88.8727 2.22463C88.6434 1.68463 88.4141 1.4354 88.1223 1.4354C87.893 1.4354 87.7054 1.29001 87.7054 1.12386ZM100.837 1.08232C100.837 0.874627 101.65 0.812319 104.693 0.812319C107.987 0.812319 108.549 0.853858 108.549 1.12386C108.549 1.29001 108.362 1.4354 108.133 1.4354C107.903 1.4354 107.653 1.60155 107.591 1.80924C107.528 1.99617 107.382 2.34924 107.299 2.5777C107.195 2.80617 106.965 3.47078 106.778 4.03155C106.569 4.61309 106.34 5.25693 106.257 5.4854C106.152 5.71386 106.027 6.19155 105.965 6.52386C105.902 6.85616 105.777 7.56232 105.652 8.08155C105.548 8.60078 105.319 9.8677 105.131 10.8854C104.943 11.9031 104.797 13.0662 104.797 13.44C104.797 13.8346 104.693 14.1046 104.526 14.1046C104.381 14.1046 104.214 13.6892 104.13 13.1285C104.047 12.5677 103.88 11.5292 103.755 10.7815C103.651 10.0339 103.463 8.97463 103.338 8.39309C103.234 7.83232 103.088 7.02232 103.026 6.6277C102.942 6.23309 102.817 5.71386 102.734 5.4854C102.63 5.25693 102.38 4.32232 102.171 3.40847C101.858 2.10001 101.671 1.7054 101.296 1.56001C101.046 1.4354 100.837 1.2277 100.837 1.08232Z" fill="black"/>
<ellipse cx="10.5" cy="16.002" rx="3.5" ry="9" fill="white"/>
<ellipse cx="75" cy="8.50195" rx="5" ry="4.5" fill="white"/>
</svg>
