<svg width="7231" height="1458" viewBox="0 0 7231 1458" fill="none" xmlns="http://www.w3.org/2000/svg">
<g clip-path="url(#clip0_455_2385)">
<path d="M737.899 1458C196.638 1458 0 1247.98 0 819.415C0 315.846 196.638 0 737.899 0C1279.16 0 1477.82 329.226 1477.82 819.415C1477.82 1234.6 1281.19 1457.59 737.899 1457.59V1458ZM737.899 21.8943C638.566 21.8943 609.78 154.477 612.212 832.39C614.24 1250 638.566 1331.5 737.899 1331.5C837.231 1331.5 863.99 1249.6 866.017 832.39C868.044 154.477 839.664 21.8943 737.899 21.8943Z" fill="black"/>
<path d="M2745.22 408.695C2745.22 347.066 2745.22 313.819 2714.41 313.819C2696.57 313.819 2676.71 340.173 2656.84 397.747C2597.24 578.984 2515.34 1000.65 2453.71 1329.88C2438.31 1411.78 2416.01 1422.73 2263.56 1422.73C2122.07 1422.73 2113.55 1411.78 2091.25 1329.88C2025.17 1080.12 1877.18 561.144 1793.25 382.34C1775.42 344.633 1762.44 322.739 1742.57 322.739C1711.76 322.739 1709.33 375.853 1709.33 433.022C1709.33 819.416 1793.25 1194.86 1950.16 1347.31C1992.32 1389.48 1998.81 1393.53 1998.81 1408.94C1998.81 1413.4 1992.33 1424.35 1978.95 1424.35C1934.75 1424.35 1861.77 1419.89 1729.2 1419.89C1645.27 1419.89 1581.21 1424.35 1543.5 1424.35C1534.58 1424.35 1530.12 1419.89 1530.12 1410.97C1530.12 1397.59 1536.61 1393.13 1554.45 1368.8C1638.38 1254.06 1687.03 787.791 1687.03 220.16C1687.03 134.205 1676.08 56.7636 1603.1 56.7636C1580.8 56.7636 1558.91 63.2508 1543.5 63.2508C1532.56 63.2508 1528.1 54.3308 1528.1 47.8436C1528.1 38.9237 1532.56 32.4365 1543.5 32.4365C1653.78 32.4365 1793.25 41.3564 1892.59 41.3564C2084.77 41.3564 2148.82 32.4365 2283.43 32.4365C2321.14 32.4365 2336.54 43.3837 2341 94.065C2351.95 217.727 2385.2 475.999 2413.98 602.094C2442.77 728.19 2462.63 772.384 2495.88 772.384C2529.13 772.384 2544.53 723.73 2564.4 650.748C2613.05 463.025 2648.32 341.39 2686.03 83.1178C2690.49 47.8436 2699.41 32.4365 2756.58 32.4365C2840.5 32.4365 2895.64 41.3564 3034.71 41.3564C3160.8 41.3564 3290.95 32.4365 3399.2 32.4365C3410.14 32.4365 3414.6 38.9237 3414.6 47.8436C3414.6 54.3308 3410.14 63.2508 3399.2 63.2508C3383.79 63.2508 3361.49 56.7636 3339.6 56.7636C3284.46 56.7636 3280 125.285 3275.54 195.833C3266.62 330.443 3264.59 489.785 3264.59 648.721C3264.59 874.152 3271.08 1099.18 3275.54 1258.52C3280 1362.31 3290.95 1400.02 3346.08 1400.02C3357.03 1400.02 3381.36 1395.56 3399.2 1395.56C3410.14 1395.56 3414.6 1402.05 3414.6 1408.94C3414.6 1417.86 3410.14 1424.35 3399.2 1424.35C3313.24 1424.35 3151.88 1419.89 2950.78 1419.89C2778.47 1419.89 2665.76 1424.35 2584.27 1424.35C2573.32 1424.35 2568.86 1417.86 2568.86 1408.94C2568.86 1400.02 2573.32 1391.1 2586.7 1391.1C2611.02 1391.1 2644.27 1400.02 2659.68 1400.02C2714.82 1400.02 2723.74 1362.31 2730.22 1258.52C2739.14 1130.4 2745.63 898.479 2745.63 408.289L2745.22 408.695Z" fill="black"/>
<path d="M4286.7 33.2471C4297.65 33.2471 4302.11 39.7343 4302.11 48.6542C4302.11 55.1414 4297.65 64.0613 4286.7 64.0613C4271.3 64.0613 4249 57.5741 4227.1 57.5741C4171.96 57.5741 4167.5 126.095 4163.04 196.644C4154.12 331.253 4152.1 490.595 4152.1 649.532C4152.1 874.962 4158.58 1099.99 4163.04 1259.33C4167.5 1363.12 4178.45 1400.83 4233.59 1400.83C4244.54 1400.83 4268.86 1396.37 4286.7 1396.37C4297.65 1396.37 4302.11 1402.86 4302.11 1409.75C4302.11 1418.67 4297.65 1425.16 4286.7 1425.16C4216.16 1425.16 4019.52 1418.67 3880.45 1418.67C3732.47 1418.67 3515.96 1425.16 3442.98 1425.16C3432.04 1425.16 3427.58 1418.67 3427.58 1409.75C3427.58 1403.26 3432.04 1396.37 3442.98 1396.37C3458.39 1396.37 3487.18 1400.83 3496.1 1400.83C3551.24 1400.83 3562.18 1363.12 3566.64 1259.33C3571.1 1100.39 3577.59 877.395 3577.59 651.965C3577.59 493.028 3575.56 333.686 3566.64 199.076C3562.18 128.528 3557.72 57.5741 3502.58 57.5741C3480.69 57.5741 3458.39 64.0613 3442.98 64.0613C3432.04 64.0613 3427.58 55.1414 3427.58 48.6542C3427.58 39.7343 3432.04 33.2471 3442.98 33.2471C3580.02 33.2471 3712.6 39.7343 3865.05 39.7343C4017.49 39.7343 4150.07 33.2471 4287.11 33.2471H4286.7Z" fill="black"/>
<path d="M5877.24 1117.83C5877.24 1022.95 5824.13 965.378 5824.13 930.104C5824.13 919.157 5830.62 907.804 5843.99 907.804C5868.32 907.804 5899.13 938.618 5899.13 1119.85C5899.13 1325.42 5868.32 1444.62 5539.1 1446.65C5331.52 1446.65 5207.86 1373.67 5207.86 1175C5207.86 1097.55 5223.27 1009.17 5223.27 918.751C5223.27 859.15 5205.43 823.876 5150.29 823.876C5081.77 823.876 5044.06 870.097 5044.06 951.998C5044.06 1046.87 5048.52 1181.89 5050.55 1258.92C5055.01 1362.72 5065.96 1400.43 5121.1 1400.43C5132.04 1400.43 5163.26 1395.97 5180.7 1395.97C5189.62 1395.97 5194.08 1402.45 5194.08 1409.35C5194.08 1416.24 5189.62 1424.75 5180.7 1424.75C5110.15 1424.75 4906.62 1420.29 4767.55 1420.29C4619.57 1420.29 4403.07 1424.75 4330.09 1424.75C4319.14 1424.75 4314.68 1418.27 4314.68 1409.35C4314.68 1400.43 4321.17 1393.94 4330.09 1393.94C4345.49 1393.94 4374.28 1400.43 4383.2 1400.43C4438.34 1400.43 4449.29 1362.72 4453.75 1258.92C4458.21 1099.99 4464.69 874.557 4464.69 649.127C4464.69 490.19 4462.66 331.253 4453.75 196.238C4449.29 125.69 4444.83 57.1688 4389.69 57.1688C4367.79 57.1688 4345.49 63.656 4330.09 63.656C4319.14 63.656 4314.68 57.1688 4314.68 48.2489C4314.68 39.329 4321.17 32.8418 4330.09 32.8418C4467.12 32.8418 4599.7 37.3017 4752.15 37.3017C4904.59 37.3017 5202.59 23.9219 5339.63 23.9219C5644.52 23.9219 5827.78 132.177 5827.78 377.475C5827.78 677.914 5536.27 728.595 5297.87 772.789C5282.46 774.816 5271.52 781.709 5271.52 790.629C5271.52 801.576 5280.43 808.469 5302.33 808.469C5609.25 808.469 5748.72 850.635 5790.48 1071.2C5799.4 1126.34 5812.37 1155.13 5841.16 1155.13C5854.54 1155.13 5876.43 1148.64 5876.43 1117.42L5877.24 1117.83ZM5141.37 50.6816C5052.98 50.6816 5039.6 125.69 5039.6 702.241C5039.6 788.196 5052.98 806.036 5088.26 806.036C5187.59 806.036 5234.22 679.941 5234.22 432.616C5234.22 156.504 5214.35 50.2762 5141.37 50.2762V50.6816Z" fill="black"/>
<path d="M6588.38 362.068C6588.38 916.319 6694.2 1201.35 6981.66 1201.35C7085.45 1201.35 7136.13 1157.16 7136.13 1075.26C7136.13 883.072 6716.5 668.994 6716.5 87.9832C6716.5 45.8164 6742.85 32.842 6767.18 32.842C6826.78 32.842 6897.32 39.3292 6959.36 39.3292C7054.23 39.3292 7140.59 32.842 7209.11 32.842C7224.51 32.842 7231 43.7891 7231 57.169C7231 68.1162 7226.54 81.496 7220.05 92.4432C7177.89 169.884 7169.37 304.494 7169.37 450.456C7169.37 596.418 7180.32 770.762 7180.32 912.264C7180.32 1261.36 7027.88 1446.65 6614.73 1446.65C6155.37 1446.65 6011.85 1280.82 6011.85 894.424C6011.85 739.948 6018.33 574.118 6018.33 388.422C6018.33 96.9031 6016.31 54.7363 5963.19 54.7363C5941.3 54.7363 5921.03 61.2235 5905.62 61.2235C5894.67 61.2235 5890.21 54.7363 5890.21 45.8164C5890.21 36.8965 5896.7 32.4365 5905.62 32.4365C6038.2 32.4365 6166.32 36.8965 6314.3 36.8965C6462.29 36.8965 6555.13 32.4365 6683.25 32.4365C6694.2 32.4365 6698.66 38.9237 6698.66 47.8436C6698.66 54.3308 6694.2 61.2235 6683.25 61.2235C6667.85 61.2235 6652.44 54.7363 6637.03 54.7363C6599.33 54.7363 6594.87 92.4432 6592.84 132.177C6588.38 205.158 6588.38 278.14 6588.38 362.068Z" fill="black"/>
</g>
<defs>
<clipPath id="clip0_455_2385">
<rect width="7231" height="1458" fill="white"/>
</clipPath>
</defs>
</svg>
