<svg width="3392" height="985" viewBox="0 0 3392 985" fill="none" xmlns="http://www.w3.org/2000/svg">
<g clip-path="url(#clip0_256_2)">
<path d="M315.782 985C228.683 985 0 927.772 0 491.188C0 54.6042 231.307 0 315.782 0C400.257 0 627.69 59.7273 627.69 491.188C627.69 922.649 400.257 985 315.782 985ZM315.782 23.3661C233.931 23.3661 227.433 139.072 227.433 493.812C227.433 848.552 233.931 961.634 315.782 961.634C397.633 961.634 400.257 845.928 400.257 493.812C400.257 141.696 393.759 23.3661 315.782 23.3661Z" fill="#CE3A39"/>
<path d="M697.919 979.877V956.511H716.164C734.408 922.774 795.39 784.951 795.39 488.689C795.39 215.793 734.283 71.5978 718.663 28.6141H697.919V5.24805H1044.94V28.6141H1024.2C1024.2 28.6141 1013.83 109.208 1013.83 181.931C1013.83 231.287 1034.57 424.963 1093.05 560.162H1095.68C1121.67 411.968 1142.41 296.387 1142.41 202.798C1142.41 109.208 1126.79 59.8523 1121.67 28.6141H1099.55V5.24805H1475.19V28.6141H1456.95C1430.95 98.8374 1378.97 236.535 1378.97 486.065C1378.97 753.713 1451.7 911.028 1475.19 956.511H1489.44V979.877H1107.3V956.511H1129.42C1152.78 911.028 1204.77 758.961 1204.77 486.065C1204.77 380.855 1194.4 228.788 1182.65 170.31H1180.03C1176.15 244.407 1060.44 900.657 1044.82 979.877H1011.08C990.333 890.161 862.87 344.369 822.632 189.803H820.008C818.758 267.773 818.758 427.587 818.758 491.313C818.758 565.41 834.379 827.935 913.605 956.511H939.598V979.877H697.919Z" fill="#CE3A39"/>
<path d="M1933.81 28.6141H1915.56C1905.19 49.3563 1823.34 218.292 1823.34 460.075C1823.34 727.723 1892.19 911.028 1915.56 956.511H1933.81V979.877H1537.42V956.511H1555.67C1579.03 911.028 1647.89 727.848 1647.89 460.075C1647.89 218.417 1566.04 46.8572 1555.67 28.6141H1537.42V5.24805H1933.81V28.6141Z" fill="#CE3A39"/>
<path d="M2253.46 573.157C2253.46 779.828 2322.32 916.276 2343.18 956.511H2371.8V979.877H1988.41V956.511H2006.66C2032.65 898.033 2080.76 735.595 2080.76 460.075C2080.76 205.422 2024.9 68.9738 2006.66 28.6141H1988.41V5.24805H2404.29C2479.64 5.24805 2629.1 31.2381 2629.1 252.154C2629.1 383.354 2564.12 465.323 2440.66 492.562V495.187C2577.12 538.045 2623.98 596.523 2623.98 833.058C2623.98 874.667 2626.6 905.78 2651.22 905.78C2664.21 905.78 2679.84 895.409 2682.46 877.166C2682.46 877.166 2682.46 874.542 2685.08 874.542H2695.46C2698.08 874.542 2698.08 877.166 2698.08 879.79C2698.08 899.283 2690.33 985 2553.87 985C2435.66 985 2404.42 903.156 2404.42 830.309C2404.42 790.074 2420.04 748.465 2420.04 674.368C2420.04 600.272 2407.04 509.306 2309.57 509.306H2253.71V573.032L2253.46 573.157ZM2286.08 483.441C2397.79 483.441 2414.79 385.978 2414.79 249.53C2414.79 144.32 2400.54 28.6141 2330.31 28.6141C2254.96 28.6141 2253.59 326.251 2253.59 417.216V483.441H2286.08Z" fill="#CE3A39"/>
<path d="M3247.79 430.211C3247.79 323.627 3203.56 113.082 3169.82 28.6141H3142.57V5.24805H3392.13V28.6141H3371.38C3303.78 178.057 3280.41 357.364 3280.41 430.211V719.976C3280.41 799.196 3272.66 985.125 3108.83 985.125C3041.23 985.125 2843.66 977.378 2843.66 735.595V385.978C2843.66 257.277 2807.3 120.829 2759.19 28.6141H2733.2V5.24805H3121.83V28.6141H3101.09C3038.73 123.453 3030.86 462.699 3030.86 514.679C3030.86 861.672 3036.11 948.764 3140.08 948.764C3208.93 948.764 3247.92 874.667 3247.92 720.101V430.336L3247.79 430.211Z" fill="#CE3A39"/>
</g>
<defs>
<clipPath id="clip0_256_2">
<rect width="3392" height="985" fill="white"/>
</clipPath>
</defs>
</svg>
