<svg width="109" height="31" viewBox="0 0 109 31" fill="none" xmlns="http://www.w3.org/2000/svg">
<path fill-rule="evenodd" clip-rule="evenodd" d="M0.0549919 15.1607C0.117524 13.7276 0.263432 11.9622 0.346808 11.2145C0.451028 10.4669 0.638624 9.38685 0.784531 8.82608C0.930439 8.24454 1.11804 7.6007 1.20141 7.37223C1.30563 7.14377 1.72251 6.2507 2.11855 5.39916C2.53543 4.54762 3.22328 3.46762 3.661 3.0107C4.09873 2.533 4.78658 1.9307 5.18261 1.6607C5.57865 1.36993 6.14144 1.01685 6.43325 0.871466C6.72507 0.726081 7.41292 0.45608 7.99655 0.289927C8.55934 0.123773 9.45563 -0.000841141 9.97673 -0.000841141C10.4978 -0.000841141 11.5192 0.165311 12.2696 0.393772C13.02 0.622234 14.0413 1.09993 14.5624 1.47378C15.0835 1.84762 15.8547 2.533 16.2716 2.98993C16.7093 3.46762 17.0637 3.90377 17.0637 3.98685C17.0637 4.06993 17.1888 4.25685 17.3347 4.40224C17.4806 4.54762 17.7515 5.00454 17.9183 5.39916C18.1059 5.79377 18.3769 6.45839 18.5228 6.853C18.6478 7.24762 18.8563 7.76685 18.9396 7.99531C19.0439 8.22377 19.1689 8.70147 19.2523 9.03377C19.3148 9.36608 19.4816 10.363 19.5858 11.2145C19.7109 12.0661 19.7734 14.683 19.7109 17.0299C19.6692 19.3769 19.5233 21.4745 19.3982 21.703C19.294 21.9315 19.0647 22.5338 18.9188 23.053C18.7729 23.5722 18.3143 24.6938 17.9183 25.5453C17.3972 26.6669 16.7927 27.4769 15.813 28.453C15.0627 29.2007 14.1664 29.9276 13.8329 30.0938C13.4785 30.2392 12.9783 30.4884 12.7073 30.613C12.4363 30.7376 11.2065 30.8415 9.97673 30.8415C8.62187 30.8415 7.53798 30.7376 7.18364 30.5715C6.89182 30.4469 6.39156 30.1976 6.07891 30.0522C5.7454 29.9276 4.93249 29.2422 4.24463 28.5569C3.55678 27.8715 2.84809 27.0822 2.70218 26.7915C2.53543 26.5007 2.20192 25.8984 1.95179 25.4415C1.72251 24.9845 1.40985 24.2784 1.28479 23.8838C1.13888 23.4892 0.930439 22.6792 0.805376 22.1184C0.680312 21.5369 0.471872 20.3738 0.367652 19.5222C0.263432 18.6707 0.117524 17.923 0.0549919 17.8607C-0.0283841 17.7984 -0.00754012 16.5938 0.0549919 15.1607ZM22.2747 0.518389C22.2747 0.248389 23.0251 0.20685 27.7983 0.20685C32.5716 0.20685 33.322 0.248389 33.322 0.518389C33.322 0.684543 33.1969 0.829927 33.0719 0.829927C32.926 0.809158 32.6758 1.07916 32.5299 1.3907C32.3423 1.80608 32.2798 2.84454 32.3632 5.19147C32.4049 6.95685 32.5299 9.11685 32.655 9.96839C32.7801 10.8199 33.0302 12.1284 33.2178 12.8761C33.4054 13.6238 33.6138 14.4545 33.6763 14.7453C33.7389 15.0361 33.8639 15.3476 33.9473 15.4722C34.0307 15.5969 34.1766 16.0122 34.2808 16.4069C34.3642 16.8015 34.4476 17.2169 34.4476 17.3207C34.4684 17.4245 34.5518 17.5492 34.6769 17.5907C34.8019 17.6322 34.9687 17.3622 35.0521 16.9884C35.1563 16.6145 35.2605 15.9292 35.323 15.4722C35.3856 15.0153 35.5106 14.4545 35.6148 14.2261C35.7191 13.9976 35.8441 13.4369 35.8858 12.9799C35.9483 12.523 36.0943 11.2145 36.2402 10.0722C36.3652 8.92993 36.4278 6.91531 36.3861 5.60685C36.3235 4.29839 36.1985 2.7407 36.0942 2.17993C35.9692 1.3907 35.8024 1.09993 35.4481 0.933773C35.198 0.809158 34.9895 0.601466 34.9895 0.456081C34.9895 0.269158 36.3235 0.20685 40.9301 0.20685C46.0785 0.20685 46.8706 0.248389 46.8706 0.518389C46.8706 0.684543 46.7247 0.829927 46.5579 0.829927C46.3703 0.829927 46.1619 1.16223 46.016 1.59839C45.8909 2.03454 45.7242 2.57454 45.62 2.80301C45.5157 3.03147 45.3907 3.44685 45.349 3.73762C45.2865 4.02839 45.078 4.81762 44.8904 5.503C44.7028 6.18839 44.4527 7.45531 44.3276 8.30685C44.2026 9.15839 44.0983 12.1907 44.0983 15.0569C44.0983 17.9022 44.2026 20.893 44.3276 21.703C44.4318 22.4922 44.6403 23.5722 44.7654 24.0915C44.8904 24.6107 45.0989 25.3999 45.2239 25.8569C45.349 26.3138 45.5366 26.8745 45.62 27.103C45.7242 27.3315 45.9535 27.9753 46.1619 28.5569C46.3703 29.1176 46.7038 29.8445 46.9123 30.1561C47.1207 30.4884 47.2875 30.7792 47.2875 30.8415C47.2875 30.9038 44.6194 30.9453 41.3469 30.9453C36.1985 30.9453 35.4064 30.9038 35.4064 30.6338C35.4064 30.4676 35.5523 30.3222 35.7191 30.3222C35.8858 30.3222 36.1359 30.073 36.261 29.7407C36.3861 29.4292 36.5737 28.993 36.6779 28.7645C36.7613 28.5361 36.9905 27.8299 37.1781 27.2069C37.3449 26.5838 37.4908 25.7945 37.4908 25.4415C37.4908 25.0884 37.5742 24.7353 37.6784 24.6107C37.7826 24.4861 37.9285 23.8007 38.0119 23.053C38.0953 22.3053 38.1578 18.6707 38.1578 14.953C38.1578 11.2353 38.0953 7.72531 38.0327 7.16454C37.9494 6.583 37.8243 5.9807 37.7618 5.81454C37.6992 5.64839 37.5116 6.06377 37.3657 6.74916C37.2198 7.43454 37.0948 8.43147 37.0739 8.97147C37.0739 9.53224 36.9905 10.0099 36.8655 10.0722C36.7404 10.1345 36.657 10.6122 36.657 11.1522C36.657 11.713 36.5737 12.2322 36.4694 12.3569C36.3652 12.4815 36.2402 12.9799 36.1776 13.4992C36.1151 14.0184 35.9692 15.3269 35.8233 16.4069C35.6774 17.4869 35.4898 18.5461 35.3856 18.733C35.2813 18.9407 35.198 19.4807 35.198 19.9376C35.198 20.3945 35.1146 20.9345 35.0104 21.1422C34.9061 21.3292 34.6769 22.4715 34.4893 23.6761C34.3017 24.8807 34.1558 26.0853 34.1558 26.3761C34.1558 26.6669 34.0724 26.9784 33.9682 27.103C33.8639 27.2276 33.718 27.7261 33.6555 28.2453C33.5721 28.7645 33.4679 29.5745 33.4262 30.073C33.3428 30.8207 33.2595 30.9453 32.8843 30.9038C32.6341 30.8622 32.3632 30.6961 32.259 30.5299C32.1756 30.3638 31.9463 29.4707 31.7587 28.5569C31.5503 27.643 31.321 26.7084 31.2168 26.4799C31.1334 26.2515 31.0083 25.7945 30.9458 25.4415C30.8833 25.0884 30.779 24.5484 30.7165 24.1953C30.6331 23.8422 30.5289 23.4269 30.4455 23.2607C30.383 23.0945 30.1954 22.3469 30.0495 21.5992C29.8827 20.8515 29.716 19.8961 29.6743 19.4599C29.6118 19.0445 29.4867 18.6499 29.3616 18.5876C29.2366 18.5253 29.1532 18.193 29.1532 17.8607C29.1532 17.5284 29.0698 17.0715 28.9448 16.8845C28.8405 16.6769 28.6529 15.9915 28.5487 15.3684C28.4445 14.7453 28.2778 13.9353 28.2152 13.603C28.1318 13.2707 28.0068 12.793 27.9026 12.5645C27.7983 12.3361 27.6733 11.8584 27.6107 11.5261C27.5691 11.1938 27.3815 10.3007 27.1939 9.55301C27.0271 8.80531 26.8187 7.91224 26.7561 7.57993C26.6728 7.24762 26.5685 6.81147 26.5269 6.64531C26.4226 6.37531 26.4018 6.37531 26.235 6.64531C26.1308 6.81147 26.0266 9.09608 26.0266 11.713C26.0266 14.3299 25.9641 16.4069 25.8807 16.3238C25.7765 16.2199 25.6306 15.3061 25.5472 14.2469C25.443 13.2084 25.2762 11.5053 25.172 10.4876C25.0678 9.46993 24.9219 8.16147 24.8593 7.57993C24.7968 7.01916 24.6717 6.45839 24.5675 6.33377C24.4841 6.20916 24.3591 5.7107 24.2757 5.19147C24.1923 4.67223 24.0256 3.92454 23.9005 3.52993C23.7755 3.13531 23.6087 2.61608 23.5253 2.38762C23.4419 2.15916 23.2335 1.723 23.0876 1.3907C22.9208 1.07916 22.6707 0.829927 22.5457 0.829927C22.3998 0.829927 22.2747 0.684543 22.2747 0.518389ZM22.2747 30.7376C22.2747 30.613 22.504 30.343 22.7958 30.1145C23.0876 29.8861 23.3169 29.533 23.3169 29.3461C23.3169 29.1384 23.3794 28.8892 23.4836 28.7645C23.5879 28.6399 23.7755 28.183 23.9214 27.7261C24.0464 27.2692 24.2549 26.4384 24.3799 25.8569C24.505 25.2961 24.6926 24.2576 24.7968 23.5722C24.901 22.8869 25.0678 21.5784 25.172 20.6645C25.2762 19.7507 25.4847 18.5876 25.9224 17.1338L25.9849 18.2761C26.0058 18.8992 26.1308 19.6053 26.235 19.8338C26.3393 20.0622 26.4643 20.7684 26.5269 21.3915C26.5685 22.0145 26.7145 23.1361 26.8395 23.8838C26.9646 24.6315 27.2564 25.8361 27.4857 26.5838C27.7358 27.3315 28.0068 28.1207 28.0902 28.3492C28.1944 28.5776 28.382 29.0345 28.507 29.3876C28.6321 29.7407 28.9656 30.1353 29.2574 30.2807C29.5492 30.4053 29.7785 30.613 29.7785 30.7376C29.7785 30.8622 28.382 30.9453 26.0266 30.9453C23.6712 30.9453 22.2747 30.8622 22.2747 30.7376ZM49.1634 30.7999C49.1426 30.6961 49.3093 30.4884 49.5178 30.3015C49.7262 30.1145 50.0597 29.4084 50.2682 28.7438C50.4766 28.0584 50.7267 27.3315 50.831 27.103C50.9352 26.8745 51.0602 26.4176 51.1436 26.0645C51.2061 25.7115 51.3521 25.0676 51.4771 24.6107C51.6022 24.1538 51.8732 22.6584 52.0816 21.2876C52.3734 19.5222 52.4776 17.6738 52.4985 15.0153C52.4985 12.6061 52.3734 10.4253 52.1858 9.09608C51.9982 7.91224 51.7689 6.7907 51.6647 6.60378C51.5396 6.39608 51.4563 6.043 51.4563 5.81454C51.4563 5.58608 51.3729 5.233 51.2687 5.04608C51.1645 4.83839 50.8101 3.84147 50.4974 2.82377C50.0806 1.57762 49.7679 0.933775 49.5178 0.850698C49.3093 0.788391 49.1843 0.643004 49.226 0.518389C49.2677 0.393773 51.5605 0.289929 55.3749 0.269159C60.6693 0.206852 61.4614 0.248389 61.4614 0.518389C61.4614 0.684543 61.2946 0.871467 61.107 0.892237C60.8569 0.954544 60.5859 1.41147 60.315 2.2007C60.1065 2.86531 59.8564 3.57147 59.773 3.73762C59.6896 3.90377 59.5021 4.46454 59.377 4.98377C59.2311 5.503 59.0852 6.20916 59.0226 6.54147C58.981 6.87377 58.8559 7.35147 58.7517 7.57993C58.6475 7.80839 58.5015 8.473 58.4182 9.03377C58.3556 9.61531 58.2723 12.2738 58.2723 14.953C58.2723 17.6322 58.3556 20.4776 58.4599 21.2669C58.5641 22.0353 58.71 22.7207 58.8142 22.7622C58.8976 22.8038 58.9601 23.0945 58.9601 23.4269C58.9601 23.7384 59.1269 24.6938 59.3561 25.5453C59.5854 26.3969 59.9189 27.5807 60.1065 28.1415C60.315 28.723 60.5651 29.3669 60.6902 29.5953C60.8152 29.8238 61.0237 30.1353 61.1904 30.2807C61.3363 30.4261 61.4614 30.6545 61.4614 30.7584C61.4614 30.8622 58.9601 30.9453 55.3124 30.9453C51.9357 30.9453 49.1634 30.883 49.1634 30.7999ZM63.5458 30.6338C63.5458 30.4676 63.6292 30.3222 63.7542 30.3222C63.8793 30.3222 64.1086 30.0107 64.2753 29.6576C64.4629 29.2838 64.588 28.8269 64.588 28.6607C64.588 28.4945 64.6505 28.2661 64.7339 28.183C64.8173 28.0792 65.0257 27.4145 65.1716 26.7292C65.3175 26.023 65.5468 24.8807 65.651 24.1953C65.7761 23.5099 65.9637 21.973 66.0888 20.7684C66.2347 19.5638 66.3389 16.8638 66.3389 14.7453C66.3389 12.6269 66.2763 10.3007 66.193 9.55301C66.1096 8.80531 65.9428 7.68377 65.8178 7.0607C65.6927 6.43762 65.4426 5.27454 65.255 4.46454C65.0882 3.65454 64.859 2.92762 64.7547 2.80301C64.6714 2.69916 64.588 2.40839 64.588 2.13839C64.588 1.86839 64.5046 1.6607 64.3795 1.6607C64.2545 1.6607 64.1711 1.47377 64.1711 1.24531C64.1711 1.01685 64.0252 0.829927 63.8584 0.829927C63.6917 0.829927 63.5458 0.684543 63.5458 0.518389C63.5458 0.248389 64.4838 0.20685 70.7995 0.20685C75.135 0.20685 78.3659 0.28993 78.8661 0.435314C79.3247 0.53916 79.9292 0.74685 80.221 0.871466C80.5128 1.01685 81.1798 1.53608 81.7426 2.05531C82.2845 2.59531 82.7223 3.07301 82.7223 3.17685C82.7223 3.25993 82.8473 3.63377 83.0141 4.00762C83.1808 4.3607 83.3684 4.96301 83.4518 5.29531C83.5352 5.62762 83.6394 6.62454 83.7019 7.47608C83.7645 8.36916 83.7019 9.38685 83.556 9.86454C83.4101 10.3215 83.16 11.0692 82.9724 11.5261C82.8056 11.983 82.2637 12.7722 81.8051 13.2707C81.2632 13.8315 80.3877 14.4338 79.4497 14.8699C78.616 15.2645 77.9698 15.6592 78.0324 15.7838C78.0949 15.9084 78.2616 15.9915 78.4075 15.9915C78.5326 15.9915 79.0746 16.1576 79.5957 16.3861C80.1168 16.6145 80.9088 17.1961 81.3882 17.6945C81.8468 18.193 82.3888 18.9199 82.5555 19.3145C82.7223 19.7092 82.9724 20.5607 83.0975 21.1838C83.2225 21.8069 83.431 23.6761 83.556 25.3376C83.6811 26.9992 83.827 28.4115 83.8895 28.5153C83.9312 28.5984 84.1813 28.6607 84.4523 28.6607C84.7024 28.6607 85.1402 28.453 85.9114 27.7261L85.7655 28.453C85.6821 28.8476 85.4528 29.4084 85.2444 29.6992C85.0359 29.9899 84.4731 30.3845 84.0146 30.5922C83.4309 30.8207 82.5972 30.9453 81.4716 30.9453C80.4503 30.9453 79.5331 30.8207 79.1371 30.6338C78.7619 30.4676 78.1991 30.0522 77.8865 29.6992C77.5529 29.3461 77.1569 28.5361 76.9485 27.7884C76.6358 26.563 76.6358 26.3345 76.9693 24.0915C77.2194 22.4299 77.3028 21.2669 77.1986 20.2492C77.1152 19.4392 76.8859 18.4215 76.6983 17.9853C76.5108 17.5284 76.1147 16.9469 75.802 16.6769C75.2809 16.2615 75.01 16.1992 71.6749 16.1992L71.7583 18.4422C71.8 19.6676 71.9459 21.2669 72.0501 22.0145C72.1752 22.7622 72.3628 23.8422 72.4879 24.403C72.6129 24.9845 72.8214 25.8153 72.9464 26.2722C73.0923 26.7292 73.3425 27.4769 73.5301 27.9338C73.7177 28.3907 74.0512 29.1384 74.2804 29.5953C74.5097 30.0522 74.8224 30.4261 74.9891 30.4261C75.1559 30.4261 75.3226 30.5507 75.3643 30.6961C75.406 30.883 74.1345 30.9453 69.4863 30.9453C64.3379 30.9453 63.5458 30.9038 63.5458 30.6338ZM87.3079 0.518389C87.3079 0.248389 88.1209 0.20685 93.3527 0.20685C98.5845 0.20685 99.3975 0.248389 99.3975 0.518389C99.3975 0.684543 99.2099 0.871465 98.9806 0.933773C98.7513 0.996081 98.5012 1.20377 98.4386 1.41147C98.3761 1.59839 98.2302 1.95147 98.1468 2.17993C98.0426 2.40839 97.855 3.0107 97.7091 3.52993C97.584 4.04916 97.3964 5.1707 97.2714 6.02224C97.1671 6.87377 96.9795 8.65993 96.8545 9.96839C96.7294 11.2769 96.6252 14.8699 96.6044 17.9645C96.5835 21.0384 96.6669 24.3615 96.7503 25.3376C96.8545 26.3138 97.0004 27.2899 97.0838 27.5184C97.188 27.7469 97.4173 28.2869 97.6049 28.723C97.8133 29.2007 98.1885 29.6161 98.6262 29.803C98.9806 29.9899 99.7935 30.1145 100.398 30.1145C101.273 30.1145 101.586 30.0107 102.003 29.5953C102.295 29.3045 102.524 28.9307 102.524 28.7645C102.524 28.5984 102.628 28.453 102.732 28.453C102.837 28.453 102.941 28.2661 102.941 28.0376C102.941 27.8092 103.045 27.6222 103.149 27.6222C103.254 27.6222 103.358 27.8092 103.358 28.0376C103.358 28.2661 103.254 28.453 103.149 28.453C103.045 28.453 102.941 28.5984 102.941 28.7645C102.941 28.9307 102.649 29.3461 102.316 29.6992C101.982 30.0522 101.649 30.3222 101.586 30.3222C101.524 30.3222 101.127 30.4884 100.69 30.6753C100.064 30.9453 99.5017 30.9869 97.7299 30.9038C95.9999 30.8207 95.3746 30.6961 94.7076 30.3222C94.249 30.073 93.6445 29.6992 93.3527 29.4915C93.0609 29.3045 92.5606 28.7645 92.2063 28.3284C91.8728 27.8715 91.4559 27.1445 91.2683 26.6876C91.0182 26.023 90.9348 24.3199 90.8097 18.0684C90.7472 13.7899 90.5804 9.57377 90.4762 8.72223C90.372 7.8707 90.1219 6.64531 89.9551 6.02224C89.7884 5.39916 89.4549 4.31916 89.2256 3.63377C88.9963 2.94839 88.6628 2.03454 88.4752 1.61916C88.2459 1.07916 88.0166 0.829927 87.7248 0.829927C87.4955 0.829927 87.3079 0.684543 87.3079 0.518389ZM100.44 0.476851C100.44 0.269158 101.253 0.20685 104.296 0.20685C107.589 0.20685 108.152 0.248389 108.152 0.518389C108.152 0.684543 107.964 0.829927 107.735 0.829927C107.506 0.829927 107.256 0.996081 107.193 1.20377C107.131 1.3907 106.985 1.74377 106.901 1.97223C106.797 2.2007 106.568 2.86531 106.38 3.42608C106.172 4.00762 105.942 4.65147 105.859 4.87993C105.755 5.10839 105.63 5.58608 105.567 5.91839C105.505 6.2507 105.38 6.95685 105.255 7.47608C105.15 7.99531 104.921 9.26224 104.734 10.2799C104.546 11.2976 104.4 12.4607 104.4 12.8345C104.4 13.2292 104.296 13.4992 104.129 13.4992C103.983 13.4992 103.816 13.0838 103.733 12.523C103.65 11.9622 103.483 10.9238 103.358 10.1761C103.254 9.42839 103.066 8.36916 102.941 7.78762C102.837 7.22685 102.691 6.41685 102.628 6.02224C102.545 5.62762 102.42 5.10839 102.336 4.87993C102.232 4.65147 101.982 3.71685 101.774 2.80301C101.461 1.49454 101.273 1.09993 100.898 0.954544C100.648 0.829929 100.44 0.622235 100.44 0.476851Z" fill="#CE3A39"/>
<ellipse cx="10.1025" cy="15.3965" rx="3.5" ry="9" fill="white"/>
<ellipse cx="74.6025" cy="7.89648" rx="5" ry="4.5" fill="white"/>
</svg>
